<?xml version="1.0" encoding="UTF-8"?>
<svg id="_圖層_1" data-name="圖層 1" xmlns="http://www.w3.org/2000/svg" viewBox="0 0 189.95 43.96">
  <defs>
    <style>
      .cls-1 {
        fill: #fff;
      }
    </style>
  </defs>
  <g>
    <path class="cls-1" d="m84.66,22.39c-.12-2.45-.73-4.68-1.84-6.69-.69-1.25-1.56-2.41-2.63-3.49-3.01-3.02-6.68-4.53-11.02-4.53s-7.99,1.51-11,4.53c-.13.13-.24.27-.37.41-.74.79-1.37,1.62-1.91,2.5-1.47,2.39-2.23,5.1-2.23,8.15,0,4.36,1.5,8.06,4.51,11.09,3.01,3.03,6.67,4.55,11,4.55s8.01-1.52,11.02-4.55c3.01-3.03,4.51-6.73,4.51-11.09,0-.3-.02-.58-.04-.87Zm-13.33,2.33c-.57.6-1.29.9-2.16.9s-1.57-.3-2.14-.9c-.57-.6-.85-1.36-.85-2.27s.28-1.67.85-2.27c.09-.09.18-.16.28-.24.52-.43,1.14-.66,1.86-.66.87,0,1.59.3,2.16.9.26.28.45.59.6.93.17.4.26.85.26,1.34,0,.91-.28,1.67-.85,2.27Z"/>
    <path class="cls-1" d="m105.17,11.11l-.7-2.95h-13.12l-1.65,6.91-1.73,7.23-3.85,16.12h9.21l1.2-5.12h6.76l1.2,5.12h9.2l-4.74-19.87-1.78-7.44Zm-8.96,15.05l1.15-5.06.56-2.45.51,2.23,1.2,5.28h-3.41Z"/>
    <path class="cls-1" d="m137.16,22.03c-1.25-.75-3.03-1.58-5.34-2.49-2.1-.82-3.4-1.42-3.9-1.8-.5-.38-.74-.76-.74-1.13,0-1.19.79-1.78,2.36-1.78,2.83,0,5.33,1.47,7.52,4.42l3.33-9.54c-2.84-1.03-5.86-1.66-9.08-1.91-1-.08-2.01-.12-3.04-.12-4.77,0-8.38.85-10.83,2.56-1.94,1.36-3.1,3.24-3.5,5.64-.1.62-.17,1.26-.17,1.95,0,1.73.39,3.17,1.17,4.3.78,1.14,1.7,2.01,2.76,2.63,1.06.61,2.39,1.25,4.01,1.89,1.78.73,2.88,1.3,3.3,1.71s.62.84.62,1.29c0,.48-.21.88-.64,1.21-.43.33-.96.5-1.6.5-1.3,0-2.65-.44-4.06-1.31-1.41-.87-2.59-2.05-3.54-3.53l-3.27,10.11c3.87,1.52,8.49,2.28,13.84,2.28,4.77,0,8.39-.85,10.85-2.55,2.46-1.7,3.69-4.17,3.69-7.41,0-1.55-.31-2.9-.93-4.07-.62-1.16-1.56-2.12-2.81-2.86Z"/>
    <rect class="cls-1" x="144.68" y="8.16" width="13.39" height="30.26"/>
    <path class="cls-1" d="m189.02,24.89c-.62-1.16-1.56-2.12-2.81-2.86s-3.03-1.58-5.34-2.49c-2.1-.82-3.4-1.42-3.9-1.8-.5-.38-.74-.76-.74-1.13,0-1.19.79-1.78,2.36-1.78,2.83,0,5.33,1.47,7.52,4.42l3.33-9.54c-3.71-1.35-7.75-2.02-12.12-2.02-4.77,0-8.38.85-10.83,2.56-2.45,1.71-3.67,4.24-3.67,7.59,0,1.73.39,3.17,1.17,4.3.78,1.14,1.7,2.01,2.76,2.63,1.06.61,2.39,1.25,4.01,1.89,1.78.73,2.88,1.3,3.3,1.71s.62.84.62,1.29c0,.48-.21.88-.64,1.21-.43.33-.96.5-1.6.5-1.3,0-2.65-.44-4.06-1.31-1.41-.87-2.59-2.05-3.54-3.53l-3.27,10.11c3.87,1.52,8.49,2.28,13.84,2.28,4.77,0,8.39-.85,10.85-2.55,2.46-1.7,3.69-4.17,3.69-7.41,0-1.55-.31-2.9-.93-4.07Z"/>
  </g>
  <g>
    <g>
      <polygon class="cls-1" points="30.28 12.02 30.28 12.02 30.28 12.02 30.28 12.02"/>
      <path class="cls-1" d="m22.91,3.43c-1.28.3-2.3.71-3.48,1.23-.18.15-.33.29-.46.42.22,0,.44-.01.66-.01.8,0,1.55.05,2.27.16,1.25-.4,2.33-.68,3.67-.84l-.34-.19c-.78-.44-1.55-.69-2.31-.77Z"/>
      <path class="cls-1" d="m26.3,4.33c.65-.06,1.13-.07,1.79-.07,6.14,0,11.63,2.74,15.34,7.05,3.04,3.54,4.89,8.14,4.89,13.18,0,3.14-.72,6.12-2,8.77,3.82-7.47,3.2-13.4,1.54-17.53-1.14-2.56-2.76-4.86-4.75-6.79-3.89-3.76-9.19-6.08-15.03-6.08-.83,0-1.47.03-2.28.12.2.44.3.75.32.8l.17.56Z"/>
      <g>
        <path class="cls-1" d="m29.71,21.31c-.49-.25-1.04-.39-1.63-.39-1.97,0-3.57,1.6-3.57,3.57,0,.52.11,1.02.32,1.46.33.74.91,1.34,1.63,1.71.49.25,1.04.39,1.63.39,1.97,0,3.57-1.6,3.57-3.57,0-.52-.11-1.02-.32-1.46-.33-.74-.91-1.34-1.63-1.71Zm-1.63,4.83c-.27,0-.53-.07-.75-.19-.33-.17-.6-.45-.76-.79-.09-.21-.15-.44-.15-.68,0-.91.74-1.66,1.66-1.66.27,0,.53.07.75.19.33.17.6.45.76.79.09.21.15.44.15.68,0,.91-.74,1.66-1.66,1.66Z"/>
        <path class="cls-1" d="m29.91,11.07c.14.31.26.63.36.93h0s0,.01,0,.01c0,0,0,0,0,0h0s0,.01,0,.01c.78,2.27.7,4.24.7,4.37l-.05,1.18-.59-1.02c-1.2-2.09-3.13-3.49-5.04-4.42,0,0,0,0,0,0-.43-.21-.86-.4-1.29-.56-.81.26-1.6.59-2.33.99.13.28.23.55.32.83,0,0,0,0,0,0,1.05,3.43-1.32,6.18-1.35,6.22l-1.28,1.45.7-1.8c.36-.93.07-2.39-.71-3.93-.13-.26-.28-.53-.44-.79-2.69,2.47-4.37,6.02-4.37,9.96,0,6.2,4.17,11.42,9.86,13.03.4-.16.79-.34,1.19-.53h0s.28-.13.28-.13h0c.11-.05.22-.1.34-.16,4.1-2.05,7.86-3.23,11.25-3.73h.05c.42-.07.84-.12,1.25-.16,1.79-2.3,2.87-5.19,2.87-8.33,0-6.86-5.1-12.52-11.71-13.41Zm2.05,11.67c.24.53.38,1.12.38,1.74,0,2.35-1.9,4.25-4.25,4.25-.7,0-1.36-.17-1.94-.47l-3.84,7.49s-.02-.01-.03-.02c-.2-.1-.4-.22-.59-.33-.1-.06-.19-.11-.28-.17-.17-.11-.35-.22-.51-.34-.1-.07-.2-.14-.29-.21-.13-.1-.26-.2-.39-.3-1.57-1.25-2.83-2.86-3.67-4.71l7.67-3.45c-.24-.53-.38-1.12-.38-1.74,0-2.35,1.9-4.25,4.25-4.25.7,0,1.36.17,1.94.47l3.84-7.49s0,0,0,0c.31.16.62.33.91.52.02.01.05.03.07.04.26.17.52.34.77.53.05.04.1.08.15.12.23.17.45.36.67.55.04.03.07.06.11.09.25.22.49.45.72.69h0s0,0,0,0c.16.17.32.35.47.53.77.9,1.41,1.91,1.9,3,0,0,0,0,0,0l-7.67,3.45Z"/>
      </g>
      <polygon class="cls-1" points="30.28 12.02 30.29 12.03 30.29 12.03 30.28 12.02"/>
      <path class="cls-1" d="m30.64,16.11c0-.05,0-.12,0-.2-.04-1.53-.37-3.09-.96-4.49-.63-1.5-1.61-2.87-2.89-3.87-.01,0-.02-.02-.04-.03-.17-.13-.35-.26-.53-.38,0,0-.02-.01-.03-.02-.19-.12-.39-.24-.6-.36-1.1-.6-2.33-.97-3.57-1.16-.65-.1-1.31-.15-1.97-.17-.62-.02-1.24.04-1.86.01.12,0,.46-.52.54-.61.24-.26.51-.49.79-.7.56-.41,1.21-.71,1.88-.88.7-.17,1.43-.21,2.14-.1.37.06.73.15,1.08.27s.64.34.99.43c0-.01,0-.02-.02-.05,0-.02-.01-.04-.02-.07,0-.02-.02-.05-.03-.09-.06-.16-.13-.32-.2-.48-.4-.87-.99-1.7-1.77-2.27-1.85-1.36-4.05-.55-5.73.67-.13.1-.27.2-.4.3-1.03.82-1.96,1.79-2.82,2.78-.17.2-.34.4-.52.58-.05-1.64-.88-3.23-2.24-4.15C10.75.34,9.39.05,8.05,0c-1.89-.07-3.78.3-5.59.81.1-.03.32.05.42.07.37.06.74.14,1.1.22,1.06.23,2.11.52,3.11.92.89.36,1.91.82,2.47,1.64.29.42.38.91.23,1.4-.01.04-.68.05-.76.06-.23.03-.46.06-.69.11-.48.09-.95.22-1.41.39-.91.32-1.78.77-2.56,1.34-1.02.73-1.9,1.65-2.56,2.71-.56.89-.97,1.87-1.26,2.88-.15.5-.26,1.01-.35,1.53-.04.24-.08.48-.12.72-.02.14-.03.28-.05.42,0,.09.02.33-.03.41,0-.01.02-.03.04-.06.02-.03.03-.05.06-.09,1.15-1.75,2.51-3.38,4.11-4.75.09-.08.18-.15.27-.23,1-.82,2.1-1.56,3.34-1.9,1.37-.37,2.77-.17,3.94.64-.08-.06-1.98,2.8-2.15,3.05-1.06,1.58-1.9,3.3-2.51,5.09-.66,1.95-1.04,4-1.1,6.07s.17,4.05.68,6.01,1.29,3.88,2.29,5.66c.52.92,1.11,1.81,1.74,2.66s1.31,1.73,2.06,2.48h3.53c-.14,0-.33-.31-.4-.4-.18-.24-.34-.49-.52-.73-1.24-1.73-2.54-3.39-3.61-5.23-1.01-1.74-1.87-3.59-2.45-5.52s-.86-3.94-.76-5.95c.05-1.12.22-2.23.49-3.31.5-1.97,1.44-3.6,2.34-5.39.98-1.74,2.22-3,3.82-3.53,1.62,1.05,3.01,2.56,3.97,4.11.16.26.31.52.44.78.12.23.23.46.33.69.09.21.18.42.25.63.04.1.07.21.1.31.06.2.11.41.16.6.08.39.12.77.11,1.12-.01.35-.07.67-.17.95,0,0,.01-.02.03-.03.01-.02.03-.04.06-.07.04-.05.08-.11.14-.18.04-.05.08-.11.13-.18.03-.04.06-.09.09-.14.04-.06.07-.12.11-.18.08-.13.16-.27.23-.42.2-.38.39-.85.53-1.37.03-.1.05-.21.08-.32.05-.22.08-.45.11-.68.04-.35.04-.73,0-1.12-.03-.36-.1-.72-.22-1.1-.08-.27-.18-.55-.31-.83-.41-.88-1.06-1.8-2.08-2.73,0,0,.13.01.36.04.17.02.4.06.67.11.18.03.39.07.61.12.22.05.46.1.71.17s.52.14.8.22c.14.04.28.08.42.13.29.09.59.19.89.3.15.06.31.11.46.18.11.05.23.09.35.14.35.15.71.31,1.07.49.08.04.15.08.23.12.24.13.48.26.72.4.63.37,1.24.8,1.81,1.29.29.25.57.51.83.79.27.28.52.57.75.89.24.31.46.64.66.96,0-.02,0-.05,0-.09,0-.04,0-.09,0-.15Z"/>
    </g>
    <path class="cls-1" d="m25.6,38.75c-.83.44-1.65.82-2.46,1.15-1.8.73-3.57,1.21-5.25,1.49l-2.34.28c-3.39.24-6.36-.24-8.57-.82-2.54-.68-4.07-1.49-4.07-1.49.95.84,2.1,1.66,3.44,2.36,1.17.62,2.49,1.15,3.94,1.54,0,0-.05.13,1.59.36,1.36.25,2.81.37,4.36.32l1.13-.06c.99-.08,2.01-.24,3.06-.47h0s.04,0,.04,0c.03,0,.07-.01.1-.02h0s.36-.09.36-.09h0s.05-.01.07-.02l.08-.02h0c.89-.22,1.81-.5,2.74-.84.77-.28,1.56-.6,2.36-.97,0,0,2.64-1.21,5.86-2.92,10.61-4.38,25.99-.57,25.99-.57-5.37-3.84-20.51-5.57-32.42.79Z"/>
  </g>
</svg>